<svg style="position: absolute; width: 0; height: 0; overflow: hidden;" version="1.1" xmlns="http://www.w3.org/2000/svg" xmlns:xlink="http://www.w3.org/1999/xlink">
<defs>
<!--
Font Awesome SVG Icons (Refer readme.txt for more info)
-->
<symbol id="icon-arrow-up" viewBox="0 0 32 32">
<path d="M30.054 23.768l-2.964 2.946c-0.446 0.446-1.161 0.446-1.607 0l-9.482-9.482-9.482 9.482c-0.446 0.446-1.161 0.446-1.607 0l-2.964-2.946c-0.446-0.446-0.446-1.179 0-1.625l13.25-13.232c0.446-0.446 1.161-0.446 1.607 0l13.25 13.232c0.446 0.446 0.446 1.179 0 1.625z"></path>
</symbol>
<symbol id="icon-search" viewBox="0 0 30 32">
<path class="path1" d="M20.571 14.857c0-4.411-3.589-8-8-8s-8 3.589-8 8 3.589 8 8 8 8-3.589 8-8zM29.714 29.714c0 1.25-1.036 2.286-2.286 2.286-0.607 0-1.196-0.25-1.607-0.679l-6.125-6.107c-2.089 1.446-4.589 2.214-7.125 2.214-6.946 0-12.571-5.625-12.571-12.571s5.625-12.571 12.571-12.571 12.571 5.625 12.571 12.571c0 2.536-0.768 5.036-2.214 7.125l6.125 6.125c0.411 0.411 0.661 1 0.661 1.607z"></path>
</symbol>
<symbol id="icon-angle-up" viewBox="0 0 16 28">
<path d="M16 19c0 0.547-0.453 1-1 1h-14c-0.547 0-1-0.453-1-1 0-0.266 0.109-0.516 0.297-0.703l7-7c0.187-0.187 0.438-0.297 0.703-0.297s0.516 0.109 0.703 0.297l7 7c0.187 0.187 0.297 0.438 0.297 0.703z"></path>
</symbol>
<symbol id="icon-angle-down" viewBox="0 0 18 32">
<path class="path1" d="M18.286 12.571c0 0.304-0.125 0.589-0.339 0.804l-8 8c-0.214 0.214-0.5 0.339-0.804 0.339s-0.589-0.125-0.804-0.339l-8-8c-0.214-0.214-0.339-0.5-0.339-0.804 0-0.625 0.518-1.143 1.143-1.143h16c0.625 0 1.143 0.518 1.143 1.143z"></path>
</symbol>
<symbol id="icon-angle-left" viewBox="0 0 24 32">
<path class="path1" d="M20.911 5.375l-9.482 9.482 9.482 9.482c0.446 0.446 0.446 1.161 0 1.607l-2.964 2.964c-0.446 0.446-1.161 0.446-1.607 0l-13.25-13.25c-0.446-0.446-0.446-1.161 0-1.607l13.25-13.25c0.446-0.446 1.161-0.446 1.607 0l2.964 2.964c0.446 0.446 0.446 1.161 0 1.607z"></path>
</symbol>
<symbol id="icon-angle-right" viewBox="0 0 22 32">
<path class="path1" d="M19.768 15.661l-13.25 13.25c-0.446 0.446-1.161 0.446-1.607 0l-2.964-2.964c-0.446-0.446-0.446-1.161 0-1.607l9.482-9.482-9.482-9.482c-0.446-0.446-0.446-1.161 0-1.607l2.964-2.964c0.446-0.446 1.161-0.446 1.607 0l13.25 13.25c0.446 0.446 0.446 1.161 0 1.607z"></path>
</symbol>
<symbol id="icon-user" viewBox="0 0 23 32">
<path class="path1" d="M22.857 24.982c0 2.607-1.714 4.732-3.804 4.732h-15.25c-2.089 0-3.804-2.125-3.804-4.732 0-4.696 1.161-10.125 5.839-10.125 1.446 1.411 3.411 2.286 5.589 2.286s4.143-0.875 5.589-2.286c4.679 0 5.839 5.429 5.839 10.125zM18.286 9.143c0 3.786-3.071 6.857-6.857 6.857s-6.857-3.071-6.857-6.857 3.071-6.857 6.857-6.857 6.857 3.071 6.857 6.857z"></path>
</symbol>
<symbol id="icon-mail-reply" viewBox="0 0 32 32">
<path class="path1" d="M32 20c0 2.5-1.25 5.768-2.268 8.054-0.196 0.411-0.393 0.982-0.661 1.357-0.125 0.179-0.25 0.304-0.5 0.304-0.357 0-0.571-0.286-0.571-0.625 0-0.286 0.071-0.607 0.089-0.893 0.054-0.732 0.089-1.464 0.089-2.196 0-8.518-5.054-10-12.75-10h-4v4.571c0 0.625-0.518 1.143-1.143 1.143-0.304 0-0.589-0.125-0.804-0.339l-9.143-9.143c-0.214-0.214-0.339-0.5-0.339-0.804s0.125-0.589 0.339-0.804l9.143-9.143c0.214-0.214 0.5-0.339 0.804-0.339 0.625 0 1.143 0.518 1.143 1.143v4.571h4c5.857 0 13.143 1.036 15.625 7.196 0.75 1.893 0.946 3.946 0.946 5.946z"></path>
</symbol>
<symbol id="icon-headphones" viewBox="0 0 32 32">
<path d="M9 18h-2v14h2c0.55 0 1-0.45 1-1v-12c0-0.55-0.45-1-1-1z"></path>
<path d="M23 18c-0.55 0-1 0.45-1 1v12c0 0.55 0.45 1 1 1h2v-14h-2z"></path>
<path d="M32 16c0-8.837-7.163-16-16-16s-16 7.163-16 16c0 1.919 0.338 3.759 0.958 5.464-0.609 1.038-0.958 2.246-0.958 3.536 0 3.526 2.608 6.443 6 6.929v-13.857c-0.997 0.143-1.927 0.495-2.742 1.012-0.168-0.835-0.258-1.699-0.258-2.584 0-7.18 5.82-13 13-13s13 5.82 13 13c0 0.885-0.088 1.749-0.257 2.584-0.816-0.517-1.745-0.87-2.743-1.013v13.858c3.392-0.485 6-3.402 6-6.929 0-1.29-0.349-2.498-0.958-3.536 0.62-1.705 0.958-3.545 0.958-5.465z"></path>
</symbol>
<symbol id="icon-folder" viewBox="0 0 30 32">
<path class="path1" d="M29.714 10.857v12.571c0 2.196-1.804 4-4 4h-21.714c-2.196 0-4-1.804-4-4v-17.143c0-2.196 1.804-4 4-4h5.714c2.196 0 4 1.804 4 4v0.571h12c2.196 0 4 1.804 4 4z"></path>
</symbol>
<symbol id="icon-tags" viewBox="0 0 34 32">
<path class="path1" d="M8 8c0-1.268-1.018-2.286-2.286-2.286s-2.286 1.018-2.286 2.286 1.018 2.286 2.286 2.286 2.286-1.018 2.286-2.286zM27.054 18.286c0 0.607-0.25 1.196-0.661 1.607l-8.768 8.786c-0.429 0.411-1.018 0.661-1.625 0.661s-1.196-0.25-1.607-0.661l-12.768-12.786c-0.911-0.893-1.625-2.625-1.625-3.893v-7.429c0-1.25 1.036-2.286 2.286-2.286h7.429c1.268 0 3 0.714 3.911 1.625l12.768 12.75c0.411 0.429 0.661 1.018 0.661 1.625zM33.911 18.286c0 0.607-0.25 1.196-0.661 1.607l-8.768 8.786c-0.429 0.411-1.018 0.661-1.625 0.661-0.929 0-1.393-0.429-2-1.054l8.393-8.393c0.411-0.411 0.661-1 0.661-1.607s-0.25-1.196-0.661-1.625l-12.768-12.75c-0.911-0.911-2.643-1.625-3.911-1.625h4c1.268 0 3 0.714 3.911 1.625l12.768 12.75c0.411 0.429 0.661 1.018 0.661 1.625z"></path>
</symbol>
<symbol id="icon-long-arrow-right" viewBox="0 0 31 32">
<path class="path1" d="M30.857 15.946c0 0.161-0.071 0.321-0.179 0.429l-6.857 6.321c-0.179 0.161-0.411 0.196-0.625 0.107-0.196-0.089-0.339-0.286-0.339-0.518v-4h-22.286c-0.321 0-0.571-0.25-0.571-0.571v-3.429c0-0.321 0.25-0.571 0.571-0.571h22.286v-4c0-0.232 0.125-0.429 0.339-0.518s0.446-0.054 0.625 0.089l6.857 6.25c0.107 0.107 0.179 0.25 0.179 0.411v0z"></path>
</symbol>
<symbol id="icon-trash" viewBox="0 0 25 32">
<path class="path1" d="M9.143 13.143v10.286c0 0.321-0.25 0.571-0.571 0.571h-1.143c-0.321 0-0.571-0.25-0.571-0.571v-10.286c0-0.321 0.25-0.571 0.571-0.571h1.143c0.321 0 0.571 0.25 0.571 0.571zM13.714 13.143v10.286c0 0.321-0.25 0.571-0.571 0.571h-1.143c-0.321 0-0.571-0.25-0.571-0.571v-10.286c0-0.321 0.25-0.571 0.571-0.571h1.143c0.321 0 0.571 0.25 0.571 0.571zM18.286 13.143v10.286c0 0.321-0.25 0.571-0.571 0.571h-1.143c-0.321 0-0.571-0.25-0.571-0.571v-10.286c0-0.321 0.25-0.571 0.571-0.571h1.143c0.321 0 0.571 0.25 0.571 0.571zM20.571 26.071v-16.929h-16v16.929c0 0.857 0.482 1.357 0.571 1.357h14.857c0.089 0 0.571-0.5 0.571-1.357zM8.571 6.857h8l-0.857-2.089c-0.054-0.071-0.214-0.179-0.304-0.196h-5.661c-0.107 0.018-0.25 0.125-0.304 0.196zM25.143 7.429v1.143c0 0.321-0.25 0.571-0.571 0.571h-1.714v16.929c0 1.964-1.286 3.643-2.857 3.643h-14.857c-1.571 0-2.857-1.607-2.857-3.571v-17h-1.714c-0.321 0-0.571-0.25-0.571-0.571v-1.143c0-0.321 0.25-0.571 0.571-0.571h5.518l1.25-2.982c0.357-0.875 1.429-1.589 2.375-1.589h5.714c0.946 0 2.018 0.714 2.375 1.589l1.25 2.982h5.518c0.321 0 0.571 0.25 0.571 0.571z"></path>
</symbol>
<symbol id="icon-email" viewBox="0 0 32 32">
<path class="path1" d="M29.714 26.857v-13.714c-0.375 0.429-0.786 0.821-1.232 1.179-2.554 1.964-5.125 3.964-7.607 6.036-1.339 1.125-3 2.5-4.857 2.5h-0.036c-1.857 0-3.518-1.375-4.857-2.5-2.482-2.071-5.054-4.071-7.607-6.036-0.446-0.357-0.857-0.75-1.232-1.179v13.714c0 0.304 0.268 0.571 0.571 0.571h26.286c0.304 0 0.571-0.268 0.571-0.571zM29.714 8.089c0-0.446 0.107-1.232-0.571-1.232h-26.286c-0.304 0-0.571 0.268-0.571 0.571 0 2.036 1.018 3.804 2.625 5.071 2.393 1.875 4.786 3.768 7.161 5.661 0.946 0.768 2.661 2.411 3.911 2.411h0.036c1.25 0 2.964-1.643 3.911-2.411 2.375-1.893 4.768-3.786 7.161-5.661 1.161-0.911 2.625-2.893 2.625-4.411zM32 7.429v19.429c0 1.571-1.286 2.857-2.857 2.857h-26.286c-1.571 0-2.857-1.286-2.857-2.857v-19.429c0-1.571 1.286-2.857 2.857-2.857h26.286c1.571 0 2.857 1.286 2.857 2.857z"></path>
</symbol>
<symbol id="icon-phone" viewBox="0 0 25 32">
<path class="path1" d="M25.143 22.143c0 0.643-0.286 1.893-0.554 2.482-0.375 0.875-1.375 1.446-2.179 1.893-1.054 0.571-2.125 0.911-3.321 0.911-1.661 0-3.161-0.679-4.679-1.232-1.089-0.393-2.143-0.875-3.125-1.482-3.036-1.875-6.696-5.536-8.571-8.571-0.607-0.982-1.089-2.036-1.482-3.125-0.554-1.518-1.232-3.018-1.232-4.679 0-1.196 0.339-2.268 0.911-3.321 0.446-0.804 1.018-1.804 1.893-2.179 0.589-0.268 1.839-0.554 2.482-0.554 0.125 0 0.25 0 0.375 0.054 0.375 0.125 0.768 1 0.946 1.357 0.571 1.018 1.125 2.054 1.714 3.054 0.286 0.464 0.821 1.036 0.821 1.589 0 1.089-3.232 2.679-3.232 3.643 0 0.482 0.446 1.107 0.696 1.536 1.804 3.25 4.054 5.5 7.304 7.304 0.429 0.25 1.054 0.696 1.536 0.696 0.964 0 2.554-3.232 3.643-3.232 0.554 0 1.125 0.536 1.589 0.821 1 0.589 2.036 1.143 3.054 1.714 0.357 0.179 1.232 0.571 1.357 0.946 0.054 0.125 0.054 0.25 0.054 0.375z"></path>
</symbol>
<symbol id="icon-pencil" viewBox="0 0 27 32">
<path class="path1" d="M6.482 27.429l1.625-1.625-4.196-4.196-1.625 1.625v1.911h2.286v2.286h1.911zM15.821 10.857c0-0.232-0.161-0.393-0.393-0.393-0.107 0-0.214 0.036-0.304 0.125l-9.679 9.679c-0.089 0.089-0.125 0.196-0.125 0.304 0 0.232 0.161 0.393 0.393 0.393 0.107 0 0.214-0.036 0.304-0.125l9.679-9.679c0.089-0.089 0.125-0.196 0.125-0.304zM14.857 7.429l7.429 7.429-14.857 14.857h-7.429v-7.429zM27.054 9.143c0 0.607-0.25 1.196-0.661 1.607l-2.964 2.964-7.429-7.429 2.964-2.946c0.411-0.429 1-0.679 1.607-0.679s1.196 0.25 1.625 0.679l4.196 4.179c0.411 0.429 0.661 1.018 0.661 1.625z"></path>
</symbol>
<symbol id="icon-comment" viewBox="0 0 32 32">
<path class="path1" d="M32 16c0 6.321-7.161 11.429-16 11.429-0.875 0-1.75-0.054-2.589-0.143-2.339 2.071-5.125 3.536-8.214 4.321-0.643 0.179-1.339 0.304-2.036 0.393-0.393 0.036-0.768-0.25-0.857-0.679v-0.018c-0.089-0.446 0.214-0.714 0.482-1.036 1.125-1.268 2.411-2.339 3.25-5.321-3.679-2.089-6.036-5.321-6.036-8.946 0-6.304 7.161-11.429 16-11.429s16 5.107 16 11.429z"></path>
</symbol>
<symbol id="icon-play" viewBox="0 0 25 32">
<path d="M24.714 16.554l-23.714 13.179c-0.554 0.304-1 0.036-1-0.589v-26.286c0-0.625 0.446-0.893 1-0.589l23.714 13.179c0.554 0.304 0.554 0.804 0 1.107z"></path>
</symbol>
<!--
Icomoon Free SVG Icons (Refer readme.txt for more info)
-->
<symbol id="icon-video" viewBox="0 0 32 32">
<path class="path1" d="M16 0c-8.837 0-16 7.163-16 16s7.163 16 16 16 16-7.163 16-16-7.163-16-16-16zM16 29c-7.18 0-13-5.82-13-13s5.82-13 13-13 13 5.82 13 13-5.82 13-13 13zM12 9l12 7-12 7z"></path>
</symbol>
<symbol id="icon-images" viewBox="0 0 36 32">
<path d="M34 4h-2v-2c0-1.1-0.9-2-2-2h-28c-1.1 0-2 0.9-2 2v24c0 1.1 0.9 2 2 2h2v2c0 1.1 0.9 2 2 2h28c1.1 0 2-0.9 2-2v-24c0-1.1-0.9-2-2-2zM4 6v20h-1.996c-0.001-0.001-0.003-0.002-0.004-0.004v-23.993c0.001-0.001 0.002-0.003 0.004-0.004h27.993c0.001 0.001 0.003 0.002 0.004 0.004v1.996h-24c-1.1 0-2 0.9-2 2v0zM34 29.996c-0.001 0.001-0.002 0.003-0.004 0.004h-27.993c-0.001-0.001-0.003-0.002-0.004-0.004v-23.993c0.001-0.001 0.002-0.003 0.004-0.004h27.993c0.001 0.001 0.003 0.002 0.004 0.004v23.993z"></path>
<path d="M30 11c0 1.657-1.343 3-3 3s-3-1.343-3-3 1.343-3 3-3 3 1.343 3 3z"></path>
<path d="M32 28h-24v-4l7-12 8 10h2l7-6z"></path>
</symbol>
<symbol id="icon-print" viewBox="0 0 32 32">
<path d="M8 2h16v4h-16v-4z"></path>
<path d="M30 8h-28c-1.1 0-2 0.9-2 2v10c0 1.1 0.9 2 2 2h6v8h16v-8h6c1.1 0 2-0.9 2-2v-10c0-1.1-0.9-2-2-2zM4 14c-1.105 0-2-0.895-2-2s0.895-2 2-2 2 0.895 2 2-0.895 2-2 2zM22 28h-12v-10h12v10z"></path>
</symbol>
<symbol id="icon-volume" viewBox="0 0 32 32">
<path d="M22.485 25.985c-0.384 0-0.768-0.146-1.061-0.439-0.586-0.586-0.586-1.535 0-2.121 4.094-4.094 4.094-10.755 0-14.849-0.586-0.586-0.586-1.536 0-2.121s1.536-0.586 2.121 0c2.55 2.55 3.954 5.94 3.954 9.546s-1.404 6.996-3.954 9.546c-0.293 0.293-0.677 0.439-1.061 0.439v0zM17.157 23.157c-0.384 0-0.768-0.146-1.061-0.439-0.586-0.586-0.586-1.535 0-2.121 2.534-2.534 2.534-6.658 0-9.192-0.586-0.586-0.586-1.536 0-2.121s1.535-0.586 2.121 0c3.704 3.704 3.704 9.731 0 13.435-0.293 0.293-0.677 0.439-1.061 0.439z"></path>
<path d="M13 30c-0.26 0-0.516-0.102-0.707-0.293l-7.707-7.707h-3.586c-0.552 0-1-0.448-1-1v-10c0-0.552 0.448-1 1-1h3.586l7.707-7.707c0.286-0.286 0.716-0.372 1.090-0.217s0.617 0.519 0.617 0.924v26c0 0.404-0.244 0.769-0.617 0.924-0.124 0.051-0.254 0.076-0.383 0.076z"></path>
</symbol>
<symbol id="icon-mute" viewBox="0 0 32 32">
<path d="M30 19.348v2.652h-2.652l-3.348-3.348-3.348 3.348h-2.652v-2.652l3.348-3.348-3.348-3.348v-2.652h2.652l3.348 3.348 3.348-3.348h2.652v2.652l-3.348 3.348 3.348 3.348z"></path>
<path d="M13 30c-0.26 0-0.516-0.102-0.707-0.293l-7.707-7.707h-3.586c-0.552 0-1-0.448-1-1v-10c0-0.552 0.448-1 1-1h3.586l7.707-7.707c0.286-0.286 0.716-0.372 1.090-0.217s0.617 0.519 0.617 0.924v26c0 0.404-0.244 0.769-0.617 0.924-0.124 0.051-0.254 0.076-0.383 0.076z"></path>
</symbol>
<symbol id="icon-user-plus" viewBox="0 0 32 32">
<path d="M12 23c0-4.726 2.996-8.765 7.189-10.319 0.509-1.142 0.811-2.411 0.811-3.681 0-4.971 0-9-6-9s-6 4.029-6 9c0 3.096 1.797 6.191 4 7.432v1.649c-6.784 0.555-12 3.888-12 7.918h12.416c-0.271-0.954-0.416-1.96-0.416-3z"></path>
<path d="M23 14c-4.971 0-9 4.029-9 9s4.029 9 9 9c4.971 0 9-4.029 9-9s-4.029-9-9-9zM28 24h-4v4h-2v-4h-4v-2h4v-4h2v4h4v2z"></path>
</symbol>
<symbol id="icon-pause" viewBox="0 0 32 32">
<path d="M4 4h10v24h-10zM18 4h10v24h-10z"></path>
</symbol>
<!--
Feather SVG Icons (Refer readme.txt for more info)
-->
<symbol id="icon-close" viewBox="0 0 32 32">
<path class="path1" d="M17.867 16l7.067-7.067c0.533-0.533 0.533-1.333 0-1.867s-1.333-0.533-1.867 0l-7.067 7.067-7.067-7.067c-0.533-0.533-1.333-0.533-1.867 0s-0.533 1.333 0 1.867l7.067 7.067-7.067 7.067c-0.533 0.533-0.533 1.333 0 1.867 0.267 0.267 0.533 0.4 0.933 0.4s0.667-0.133 0.933-0.4l7.067-7.067 7.067 7.067c0.267 0.267 0.667 0.4 0.933 0.4s0.667-0.133 0.933-0.4c0.533-0.533 0.533-1.333 0-1.867l-7.067-7.067z"></path>
</symbol>
<symbol id="icon-more" viewBox="0 0 32 32">
<path d="M18.667 16c0 1.473-1.194 2.667-2.667 2.667s-2.667-1.194-2.667-2.667c0-1.473 1.194-2.667 2.667-2.667s2.667 1.194 2.667 2.667z"></path>
<path d="M18.667 6.667c0 1.473-1.194 2.667-2.667 2.667s-2.667-1.194-2.667-2.667c0-1.473 1.194-2.667 2.667-2.667s2.667 1.194 2.667 2.667z"></path>
<path d="M18.667 25.333c0 1.473-1.194 2.667-2.667 2.667s-2.667-1.194-2.667-2.667c0-1.473 1.194-2.667 2.667-2.667s2.667 1.194 2.667 2.667z"></path>
</symbol>
<!--
Genericons Neue Icons ( Refer readme.txt for more info )
-->
<symbol id="icon-sticky" viewBox="0 0 32 32">
<path d="M24 16c0-1-1-2-2-2h-1.2l-0.6-6c1-0.2 1.8-1 1.8-2s-1-2-2-2h-8c-1 0-2 1-2 2s0.8 1.8 1.8 2l-0.6 6h-1.2c-1 0-2 1-2 2v2h6v12l4-2v-10h6v-2z"></path>
</symbol>
<symbol id="icon-cart" viewBox="0 0 32 32">
<path d="M22 24c-1.2 0-2 0.8-2 2s0.8 2 2 2 2-0.8 2-2-0.8-2-2-2zM10 24c-1.2 0-2 0.8-2 2s0.8 2 2 2 2-0.8 2-2-0.8-2-2-2zM22 20h-12v-2h11.2c1.6 0 3-1 3.8-2.6l3-7.4h-18v-2c0-1.2-0.8-2-2-2h-4v2h4v14c0 1.2 0.8 2 2 2h14c0-1.2-0.8-2-2-2z"></path>
</symbol>
</defs>
</svg>

